#!OML:ASF F:\VICON\USERDATA\INSTALL\rory3\rory3.ASF
:FULLY-SPECIFIED
:DEGREES
1420
root 0.704951 15.8465 -3.4306 342.491 13.868 1.41159
lowerback 18.7601 -3.1786 -0.837185
upperback 11.6003 -4.19223 -0.95069
thorax 1.98773 -2.08536 0.156755
lowerneck -5.31191 -13.5302 -21.1565
upperneck 10.9528 -17.9882 13.4594
head 7.38168 -8.87909 5.81272
rclavicle -2.27546e-014 -7.25564e-015
rhumerus -44.9162 54.9677 -96.5396
rradius 84.3103
rwrist 42.9625
rhand -71.8316 43.6449
rfingers 7.12502
rthumb -43.3236 19.5143
lclavicle -2.27546e-014 -7.25564e-015
lhumerus -35.9089 -22.6161 84.9912
lradius 68.6732
lwrist 14.8094
lhand -36.3468 12.4176
lfingers 7.12502
lthumb -9.44439 42.186
rfemur -74.4173 -37.7969 17.8058
rtibia 140.718
rfoot -2.88677 2.03154
rtoes 10.2115
lfemur -28.2503 37.4998 -7.4656
ltibia 110.886
lfoot -18.9876 -17.0187
ltoes -44.7954
1421
root 0.699292 15.8422 -3.42275 342.095 13.5789 0.857699
lowerback 19.0469 -3.2289 -0.24939
upperback 11.6545 -4.16921 -0.946694
thorax 1.8596 -2.04268 -0.156317
lowerneck -5.45817 -13.6134 -20.8696
upperneck 11.2874 -18.0883 13.1752
head 7.47643 -8.92689 5.65013
rclavicle -6.41686e-014 2.94823e-014
rhumerus -45.0769 54.8733 -96.8917
rradius 84.2903
rwrist 42.9727
rhand -71.7823 44.1753
rfingers 7.12502
rthumb -43.2775 20.0281
lclavicle -6.41686e-014 2.94823e-014
lhumerus -36.0586 -22.6414 84.8218
lradius 68.7417
lwrist 14.786
lhand -36.2623 12.2723
lfingers 7.12502
lthumb -9.36292 42.0443
rfemur -73.9794 -37.2888 18.4286
rtibia 140.627
rfoot -2.95695 1.69611
rtoes 10.5091
lfemur -27.7193 37.8518 -6.25635
ltibia 111.043
lfoot -18.979 -17.2389
ltoes -43.7077
1422
root 0.700586 15.845 -3.41892 342.097 13.4487 0.729028
lowerback 19.0175 -3.24174 -0.0966476
upperback 11.6694 -4.16351 -0.959861
thorax 1.8789 -2.0317 -0.25846
lowerneck -5.41018 -13.6717 -20.9609
upperneck 11.3113 -18.1947 13.3149
head 7.51789 -8.97565 5.6929
rclavicle 5.27152e-014 -2.45251e-014
rhumerus -45.0073 54.9665 -96.9111
rradius 84.2729
rwrist 42.9679
rhand -71.7674 43.5569
rfingers 7.12502
rthumb -43.2636 19.4047
lclavicle 5.27152e-014 -2.45251e-014
lhumerus -36.1042 -22.5889 84.7515
lradius 68.8219
lwrist 14.7695
lhand -36.1919 12.287
lfingers 7.12502
lthumb -9.29496 42.0621
rfemur -73.9369 -37.0606 18.6056
rtibia 140.587
rfoot -2.97433 1.6442
rtoes 10.6764
lfemur -27.629 37.9788 -6.01948
ltibia 111.113
lfoot -18.9806 -17.283
ltoes -43.0042
1423
root 0.699259 15.8401 -3.41433 342.096 13.5371 1.02791
lowerback 19.095 -3.23352 -0.483022
upperback 11.6886 -4.21192 -1.06676
thorax 1.88026 -2.07254 -0.144007
lowerneck -5.40664 -13.6982 -20.9658
upperneck 11.3601 -18.2454 13.3664
head 7.54794 -8.99762 5.70149
rclavicle -1.45858e-014 -2.55935e-015
rhumerus -44.9682 55.1379 -96.9839
rradius 84.2128
rwrist 42.9479
rhand -71.7665 42.1262
rfingers 7.12502
rthumb -43.2628 17.9737
lclavicle -1.45858e-014 -2.55935e-015
lhumerus -36.1626 -22.5251 84.6734
lradius 68.847
lwrist 14.7891
lhand -36.1951 12.2595
lfingers 7.12502
lthumb -9.29804 42.0344
rfemur -73.9122 -37.336 18.1595
rtibia 140.68
rfoot -2.94426 1.76036
rtoes 10.6294
lfemur -27.5213 37.7723 -6.42557
ltibia 111.109
lfoot -19.1451 -17.0515
ltoes -42.9539
1424
root 0.695727 15.8316 -3.41034 342.108 13.684 1.44449
lowerback 19.1816 -3.19984 -1.04766
upperback 11.7012 -4.25494 -1.17029
thorax 1.88451 -2.12009 0.0729691
lowerneck -4.825 -13.6011 -21.247
upperneck 10.8207 -18.2393 13.9074
head 7.3558 -9.00039 5.96288
rclavicle 1.88348e-014 -5.16343e-014
rhumerus -45.0051 55.2683 -97.0614
rradius 84.2063
rwrist 42.9057
rhand -71.6428 42.0227
rfingers 7.12502
rthumb -43.1471 17.8289
lclavicle 1.88348e-014 -5.16343e-014
lhumerus -36.1811 -22.4965 84.6516
lradius 68.7893
lwrist 14.8892
lhand -36.2552 12.1073
lfingers 7.12502
lthumb -9.35609 41.8797
rfemur -73.9877 -37.6721 17.5831
rtibia 140.801
rfoot -2.77084 1.9188
rtoes 10.5954
lfemur -27.4727 37.4721 -7.06462
ltibia 111.078
lfoot -19.2899 -16.6878
ltoes -42.9148
1425
root 0.700646 15.8356 -3.40672 342.144 13.392 0.937267
lowerback 18.9833 -3.25293 -0.45041
upperback 11.695 -4.23385 -1.07349
thorax 1.94071 -2.08265 -0.172118
lowerneck -4.29219 -13.5419 -21.4823
upperneck 10.3277 -18.2768 14.4057
head 7.18743 -9.02415 6.19282
rclavicle 2.73329e-016 4.82053e-015
rhumerus -44.9591 55.3765 -97.0695
rradius 84.1687
rwrist 42.7152
rhand -71.5742 43.8956
rfingers 7.12502
rthumb -43.083 19.6791
lclavicle 2.73329e-016 4.82053e-015
lhumerus -36.2034 -22.5835 84.6488
lradius 68.7647
lwrist 15.0299
lhand -36.2973 11.9557
lfingers 7.12502
lthumb -9.3967 41.7262
rfemur -74.0163 -37.0262 18.3482
rtibia 140.69
rfoot -2.79537 1.62418
rtoes 10.8745
lfemur -27.6022 37.6461 -6.49008
ltibia 111.138
lfoot -19.5038 -16.6057
ltoes -43.0475
1426
root 0.705218 15.8419 -3.40349 342.19 13.0928 0.336114
lowerback 18.7879 -3.32758 0.239931
upperback 11.6801 -4.22974 -0.957891
thorax 1.98244 -2.04917 -0.44602
lowerneck -4.67234 -13.7049 -21.246
upperneck 10.8144 -18.4168 13.9296
head 7.362 -9.09058 5.94929
rclavicle 3.05134e-014 -1.71452e-014
rhumerus -44.8918 55.4876 -97.0601
rradius 84.1293
rwrist 42.6326
rhand -71.5757 44.6089
rfingers 7.12502
rthumb -43.0844 20.3928
lclavicle 3.05134e-014 -1.71452e-014
lhumerus -36.3255 -22.6149 84.6389
lradius 68.8375
lwrist 15.1167
lhand -36.3293 11.7537
lfingers 7.12502
lthumb -9.42756 41.5228
rfemur -74.0276 -36.3697 19.2691
rtibia 140.572
rfoot -2.91373 1.28596
rtoes 10.9116
lfemur -27.7587 37.8589 -5.75945
ltibia 111.197
lfoot -19.6656 -16.6706
ltoes -43.0438
1427
root 0.702849 15.838 -3.41061 342.663 13.39 1.05574
lowerback 18.6165 -3.29685 -0.499798
upperback 11.6089 -4.30157 -1.16894
thorax 2.0277 -2.11703 -0.250932
lowerneck -5.02647 -13.8628 -21.0335
upperneck 11.1777 -18.551 13.5208
head 7.50041 -9.15319 5.73485
rclavicle 2.42393e-014 1.51573e-014
rhumerus -44.7244 55.5801 -97.0346
rradius 84.0538
rwrist 42.6235
rhand -71.5261 43.1835
rfingers 7.12502
rthumb -43.038 18.951
lclavicle 2.42393e-014 1.51573e-014
lhumerus -36.3739 -22.6054 84.5746
lradius 68.9181
lwrist 15.1203
lhand -36.3803 11.7861
lfingers 7.12502
lthumb -9.47678 41.553
rfemur -74.7577 -36.7765 18.6331
rtibia 140.719
rfoot -2.63358 1.49295
rtoes 10.8273
lfemur -28.4091 37.5277 -7.27767
ltibia 111.115
lfoot -19.6816 -16.169
ltoes -43.0459
1428
root 0.700969 15.8249 -3.42335 343.713 14.1397 2.70883
lowerback 18.1933 -3.2228 -2.17547
upperback 11.3958 -4.44863 -1.58235
thorax 2.1091 -2.26379 0.253802
lowerneck -4.95954 -13.9011 -21.1039
upperneck 11.0924 -18.6181 13.6172
head 7.4903 -9.18524 5.76946
rclavicle 1.91827e-014 -9.0944e-015
rhumerus -44.5954 55.6493 -96.9798
rradius 84.0117
rwrist 42.5989
rhand -71.4864 42.5362
rfingers 7.12502
rthumb -43.0009 18.2906
lclavicle 1.91827e-014 -9.0944e-015
lhumerus -36.3624 -22.6647 84.5392
lradius 68.994
lwrist 15.2166
lhand -36.3552 12.0015
lfingers 7.12502
lthumb -9.45254 41.7695
rfemur -76.3558 -37.9572 17.0424
rtibia 141.068
rfoot -1.97992 2.19038
rtoes 10.9424
lfemur -29.8173 36.6944 -10.6815
ltibia 110.956
lfoot -19.457 -15.1565
ltoes -42.971
1429
root 0.70081 15.8171 -3.42727 344.31 14.472 3.52109
lowerback 17.8969 -3.17169 -2.96628
upperback 11.2829 -4.4894 -1.77167
thorax 2.18912 -2.31864 0.48687
lowerneck -4.94553 -13.9332 -21.2001
upperneck 11.0785 -18.6765 13.7493
head 7.51746 -9.21016 5.81654
rclavicle 4.41302e-014 -1.78906e-014
rhumerus -44.5372 55.6557 -96.8782
rradius 84.0383
rwrist 42.5516
rhand -71.4786 42.9022
rfingers 7.12502
rthumb -42.9936 18.654
lclavicle 4.41302e-014 -1.78906e-014
lhumerus -36.2932 -22.7922 84.552
lradius 69.0158
lwrist 15.3535
lhand -36.3589 12.0866
lfingers 7.12502
lthumb -9.45609 41.8545
rfemur -77.2555 -38.5304 16.3409
rtibia 141.262
rfoot -1.6724 2.58957
rtoes 10.9665
lfemur -30.6045 36.2118 -12.3323
ltibia 110.901
lfoot -19.159 -14.8534
ltoes -42.5404
1430
root 0.697207 15.8202 -3.42141 344.371 14.538 3.35094
lowerback 17.7342 -3.20838 -2.87295
upperback 11.2895 -4.51865 -1.7046
thorax 2.27798 -2.33221 0.499509
lowerneck -4.34272 -13.8308 -21.4797
upperneck 10.4588 -18.6644 14.3209
head 7.30035 -9.21089 6.09166
rclavicle -4.89135e-014 9.24349e-015
rhumerus -44.4257 55.6576 -96.7711
rradius 83.9476
rwrist 42.5618
rhand -71.5504 44.2406
rfingers 7.12502
rthumb -43.0607 20.0162
lclavicle -4.89135e-014 9.24349e-015
lhumerus -36.2704 -22.8997 84.5803
lradius 69.0146
lwrist 15.4216
lhand -36.4918 11.8283
lfingers 7.12502
lthumb -9.58434 41.5903
rfemur -77.2352 -38.6461 16.651
rtibia 141.244
rfoot -1.84134 2.55419
rtoes 10.5617
lfemur -30.7774 36.0439 -12.142
ltibia 110.944
lfoot -18.8761 -15.1993
ltoes -41.9388
